[img]http://img221.imageshack.us/img221/3391/1575386hio.jpg[/img]


[code]iMDB................................: http://www.imdb.com/title/tt0978764/

Plot :
A young girl is institutionalized by her abusive stepfather. Retreating to an alternative reality as a coping strategy, she envisions a plan which will help her escape from the mental facility. 

Cast :

Emily Browning	... 	Baby Doll
Abbie Cornish	... 	Sweet Pea
Jena Malone	... 	Rocket
Vanessa Hudgens	... 	Blondie
Jamie Chung	... 	Amber
Carla Gugino	... 	Dr. Vera Gorski
Oscar Isaac	... 	Blue Jones
Jon Hamm	... 	High Roller / Doctor
Scott Glenn	... 	Wise Man



General
Format                           : MPEG-4
Format profile                   : Base Media
File size                        : 1.78 GiB
Duration                         : 1h 49mn
Overall bit rate                 : 2 325 Kbps

Video
Format/Info                      : Advanced Video Codec
Format profile                   : High@L4.1
Format settings, CABAC           : Yes
Format settings, ReFrames        : 4 frames
Codec ID                         : avc1
Codec ID/Info                    : Advanced Video Coding
Duration                         : 1h 49mn
Bit rate mode                    : Variable
Bit rate                         : 2 000 Kbps
Maximum bit rate                 : 11.1 Mbps
Width                            : 1 280 pixels
Height                           : 528 pixels
Display aspect ratio             : 2.40:1
Frame rate mode                  : Constant
Frame rate                       : 23.976 fps
Color space                      : YUV
Chroma subsampling               : 4:2:0
Bit depth                        : 8 bits
Scan type                        : Progressive
Bits/(Pixel*Frame)               : 0.123
Stream size                      : 1.53 GiB (86%)
Writing library                  : x264 core 115 r1995 c1e60b9

Audio
Format                           : AAC
Format/Info                      : Advanced Audio Codec
Format profile                   : LC
Codec ID                         : 40
Duration                         : 1h 49mn
Bit rate mode                    : Variable
Bit rate                         : 322 Kbps
Maximum bit rate                 : 429 Kbps
Channel(s)                       : 6 channels
Channel positions                : Front: L C R, Side: L R, LFE
Sampling rate                    : 48.0 KHz
Compression mode                 : Lossy
Stream size                      : 253 MiB (14%)
Language                         : English





Subtitles          : English\Arabic\Norwegian\Dutch\Dannish\Vietnamese
Source             : 720p-FELONY
Sample            : Included
[/code]


[img]http://img171.imageshack.us/img171/8972/suckerpunchmp4snapshot0.png[/img]
[img]http://img842.imageshack.us/img842/8972/suckerpunchmp4snapshot0.png[/img]
[img]http://img833.imageshack.us/img833/8972/suckerpunchmp4snapshot0.png[/img]
[img]http://img708.imageshack.us/img708/8972/suckerpunchmp4snapshot0.png[/img]
[img]http://img135.imageshack.us/img135/8972/suckerpunchmp4snapshot0.png[/img]


[code]Trackers : 
http://nemesis.1337x.org/announce 
http://exodus.1337x.org:80/announce 
http://genesis.1337x.org:1337/announce
[/code]


[code]
Feel free to visit and select your range and suite of seedboxes and hosting plans.
Recomended by MXMG as these servers seed for your Dowloading @ 25MB/s and Higher... 
http://www.chociz.com/

^COMPATiBLE MODES.......: XBOX-360/PSP/PS3/WDTV

FiND THE GENUiNE MXMG RELEASES @ TORRENTSTATE
HiGHEST QUALiTY iN COMFORTABLE SiZE ...
[/code]